<svg width="253" height="324" viewBox="0 0 253 324" fill="none" xmlns="http://www.w3.org/2000/svg">
<mask id="mask0_275_910" style="mask-type:luminance" maskUnits="userSpaceOnUse" x="0" y="0" width="253" height="324">
<path d="M253 0H0V324H253V0Z" fill="white"/>
</mask>
<g mask="url(#mask0_275_910)">
<path d="M196.557 196.838H65.5111C58.7897 196.838 53.2905 191.345 53.2905 184.631C53.2905 177.917 58.7897 172.424 65.5111 172.424H196.557C203.279 172.424 208.778 177.917 208.778 184.631C208.778 191.345 203.279 196.838 196.557 196.838Z" fill="#D2D2D2"/>
<path d="M225.311 156.99H36.7557C30.035 156.99 24.5352 151.497 24.5352 144.783C24.5352 138.069 30.035 132.576 36.7557 132.576H225.311C232.032 132.576 237.531 138.069 237.531 144.783C237.531 151.497 232.032 156.99 225.311 156.99Z" fill="#D2D2D2"/>
<path d="M208.882 135.137H53.1859C46.4645 135.137 40.9653 129.643 40.9653 122.929C40.9653 116.216 46.4645 110.722 53.1859 110.722H208.882C215.603 110.722 221.103 116.216 221.103 122.929C221.103 129.643 215.603 135.137 208.882 135.137Z" fill="#D2D2D2"/>
<path d="M148.966 132.096L148.972 132.644L149.16 150.656L148.358 150.94L133.06 133.064L132.226 132.269L133.305 132.258L148.437 132.101L148.966 132.096ZM152.781 167.068L160.231 166.991L129.866 133.372L99.9361 167.616L107.365 167.539L107.627 192.718L153.044 192.247L152.781 167.068ZM142.128 162.401C142.911 162.392 143.978 163.164 143.989 164.242L144.067 171.662C144.077 172.699 143.027 173.513 142.244 173.521L135.854 173.587C134.796 173.598 133.982 172.803 133.971 171.767L133.894 164.346C133.883 163.269 134.68 162.478 135.738 162.467L142.128 162.401Z" fill="#A4A4A4"/>
<path d="M172.894 257.697C172.894 262.96 154.153 267.226 131.034 267.226C107.915 267.226 89.1743 262.96 89.1743 257.697C89.1743 252.434 107.915 248.167 131.034 248.167C154.153 248.167 172.894 252.434 172.894 257.697Z" fill="#A4A4A4"/>
<path d="M129.109 101.292C123.812 101.357 118.693 102.132 113.842 103.524C108.99 104.914 104.406 106.922 100.177 109.449C95.8169 112.056 91.8373 115.218 88.3382 118.836C84.8391 122.453 81.8192 126.527 79.3771 130.957C77.0137 135.244 75.1896 139.861 73.9978 144.719C72.8899 149.236 72.3283 153.961 72.3879 158.823C72.3922 159.173 72.418 159.538 72.4321 159.894C72.6045 164.321 73.5077 169.259 74.9746 174.509C76.4409 179.76 78.4709 185.323 80.8981 191.002C83.7781 197.743 87.2127 204.642 90.9184 211.368C94.6247 218.093 98.6033 224.643 102.573 230.686C106.735 237.021 110.884 242.797 114.695 247.629C114.721 247.662 114.747 247.695 114.773 247.727C119.646 253.879 125.284 258.581 131.036 258.511C136.787 258.441 142.309 253.603 147.029 247.335C147.054 247.301 147.08 247.268 147.105 247.234C150.796 242.311 154.803 236.435 158.808 230.001C162.628 223.864 166.445 217.218 169.985 210.405C173.526 203.591 176.79 196.61 179.504 189.801C181.79 184.065 183.684 178.454 185.022 173.169C186.359 167.885 187.141 162.927 187.204 158.496C187.209 158.14 187.227 157.774 187.223 157.424C187.163 152.563 186.486 147.853 185.267 143.364C183.957 138.537 182.02 133.965 179.553 129.737C177.003 125.368 173.884 121.369 170.297 117.837C166.71 114.306 162.654 111.242 158.232 108.742C153.942 106.318 149.31 104.424 144.425 103.151C139.541 101.878 134.405 101.228 129.109 101.292L129.146 104.278L129.182 107.263L129.228 111.01L129.274 114.758L129.318 118.344L129.362 121.929L129.38 123.424L129.399 124.919C132.505 124.881 135.513 125.265 138.374 126.011C141.236 126.758 143.95 127.868 146.467 129.28C149.165 130.794 151.635 132.658 153.806 134.815C155.977 136.972 157.849 139.42 159.352 142.104C160.735 144.572 161.811 147.232 162.524 150.035C163.151 152.495 163.499 155.065 163.531 157.713C163.536 158.074 163.497 158.426 163.489 158.785C163.429 161.737 162.979 164.594 162.184 167.31C161.39 170.025 160.251 172.599 158.817 174.985C157.309 177.494 155.482 179.796 153.385 181.83C151.29 183.864 148.923 185.63 146.337 187.065C143.952 188.389 141.387 189.437 138.684 190.163C135.982 190.889 133.143 191.293 130.212 191.328C127.281 191.364 124.434 191.03 121.715 190.37C118.995 189.709 116.404 188.725 113.987 187.459C111.367 186.087 108.959 184.38 106.813 182.397C104.667 180.415 102.784 178.158 101.215 175.686C99.7228 173.336 98.522 170.791 97.6611 168.096C96.8003 165.4 96.2795 162.555 96.1473 159.605C96.1313 159.246 96.0835 158.896 96.0791 158.534C96.0466 155.887 96.3316 153.309 96.8975 150.834C97.5428 148.015 98.5524 145.33 99.8744 142.828C101.312 140.109 103.123 137.615 105.241 135.406C107.358 133.197 109.781 131.273 112.442 129.694C114.923 128.221 117.609 127.046 120.452 126.23C123.293 125.413 126.292 124.956 129.399 124.919C129.392 124.42 129.397 123.922 129.404 123.423C129.408 122.924 129.414 122.426 129.408 121.928C129.393 120.732 129.377 119.537 129.361 118.342C129.345 117.148 129.328 115.953 129.314 114.758L129.268 111.009L129.222 107.262C129.209 106.267 129.188 105.272 129.165 104.277C129.143 103.282 129.121 102.288 129.109 101.292ZM-3.14209 2.42355L249.83 -0.657L253.801 323.325L0.828823 326.406L-3.14209 2.42355ZM0.828823 326.406L253.801 323.325L249.83 -0.657L-3.14209 2.42355L0.828823 326.406Z" fill="#F7561E"/>
</g>
</svg>
