<svg width="43" height="31" viewBox="0 0 43 31" fill="none" xmlns="http://www.w3.org/2000/svg">
<g clip-path="url(#clip0_246_105)">
<path d="M21.7566 3.3437C24.5033 0.5 30.0075 0.5 33.6933 0.5V13.6305H28.5916C24.0519 13.6305 21.7757 15.6708 21.7757 19.7535V25.8831H12.4176V19.7535C12.4176 15.6708 10.1414 13.6305 5.60175 13.6305H0.5V0.5C4.18578 0.5 9.69209 0.5 12.4389 3.3437C14.3126 5.29641 16.3099 8.22767 16.7677 12.317H17.4299C17.8856 8.22767 19.8849 5.29641 21.7587 3.3437H21.7566Z" fill="#113342"/>
<path d="M31.8728 29.0771C30.4994 30.5 27.7462 30.5 25.9044 30.5V23.9348H28.4553C30.7251 23.9348 31.8643 22.9146 31.8643 20.8722V17.8074H36.5423V20.8722C36.5423 22.9125 37.6815 23.9348 39.9513 23.9348H42.5021V30.5C40.6582 30.5 37.9072 30.5 36.5338 29.0771C35.5969 28.1007 34.5983 26.634 34.3704 24.5893H34.0404C33.8126 26.634 32.8118 28.1007 31.877 29.0771H31.8728Z" fill="#FFB41F"/>
</g>
<defs>
<clipPath id="clip0_246_105">
<rect width="42" height="30" fill="white" transform="translate(0.5 0.5)"/>
</clipPath>
</defs>
</svg>
