<svg width="116" height="115" viewBox="0 0 116 115" fill="none" xmlns="http://www.w3.org/2000/svg">
<path d="M57.9969 98.3835L42.0224 114.255C37.4143 109.677 30.5267 102.833 30.5514 95.9779C30.5822 91.2892 31.6541 85.26 36.059 79.751L35.2334 78.9308C29.6889 83.3074 23.6207 84.3663 18.9017 84.403C12.008 84.4275 5.1204 77.5842 0.506104 73.0056L16.4806 57.1338L22.8629 63.4752C28.543 69.1188 33.8719 69.4799 38.8374 64.5464L46.2979 57.1338L58.003 68.7638L50.5425 76.1763C45.5771 81.1099 45.9406 86.4107 51.6206 92.0482L58.003 98.3896L57.9969 98.3835Z" fill="#113342"/>
<path d="M57.9969 45.4982L46.2918 57.1281L38.8313 49.7156C33.8658 44.782 28.5308 45.1431 22.8568 50.7867L16.4744 57.1281L0.5 41.2563C5.10813 36.6777 11.9957 29.8344 18.8956 29.8589C23.6146 29.8895 29.6828 30.9546 35.2273 35.3311L36.0528 34.5109C31.648 29.002 30.5822 22.9727 30.5453 18.284C30.5206 11.4346 37.4082 4.59125 42.0163 0.0065918L57.9908 15.8784L51.6084 22.2198C45.9283 27.8634 45.5648 33.1581 50.5303 38.0917L57.9908 45.5043L57.9969 45.4982Z" fill="#FFB41F"/>
<path d="M115.494 41.2558L99.5194 57.1277L93.137 50.7863C87.4569 45.1427 82.128 44.7815 77.1625 49.7151L69.702 57.1277L57.9969 45.4977L65.4574 38.0851C70.4228 33.1516 70.0594 27.8507 64.3793 22.2133L57.9969 15.8719L73.9713 0C78.5795 4.57854 85.467 11.4219 85.4424 18.2774C85.4116 22.9661 84.3335 29.0015 79.9348 34.5043L80.7603 35.3245C86.2987 30.9602 92.3731 29.889 97.0921 29.8523C103.986 29.8278 110.873 36.6712 115.488 41.2497L115.494 41.2558Z" fill="#F7561E"/>
<path d="M85.4486 95.984C85.4732 102.833 78.5857 109.677 73.9776 114.261L58.0031 98.3896L64.3855 92.0482C70.0656 86.4046 70.4291 81.1099 65.4636 76.1763L58.0031 68.7638L69.7083 57.1338L77.1688 64.5464C82.1342 69.4799 87.4693 69.1188 93.1432 63.4752L99.5256 57.1338L115.5 73.0056C110.892 77.5842 104.004 84.4275 97.1045 84.403C92.3855 84.3724 86.3172 83.3074 80.7727 78.9308L79.9472 79.751C84.352 85.26 85.4178 91.2892 85.4548 95.9779L85.4486 95.984Z" fill="#40C1AC"/>
</svg>
