<svg width="106" height="165" viewBox="0 0 106 165" fill="none" xmlns="http://www.w3.org/2000/svg">
    <g clip-path="url(#clip0_32_21365)">
        <path
            d="M53.0001 75.7921L40.6938 88.0194C37.1438 84.4922 31.8378 79.2203 31.8568 73.939C31.8805 70.3269 32.7063 65.6821 36.0997 61.4382L35.4637 60.8063C31.1923 64.1779 26.5175 64.9937 22.8821 65.0219C17.5714 65.0408 12.2654 59.7689 8.71063 56.2417L21.017 44.0144L25.9338 48.8997C30.3096 53.2473 34.4148 53.5256 38.2401 49.7249L43.9875 44.0144L53.0048 52.9739L47.2575 58.6843C43.4322 62.485 43.7122 66.5686 48.088 70.9116L53.0048 75.7969L53.0001 75.7921Z"
            fill="#113342" />
        <path
            d="M53 35.0507L43.9827 44.0102L38.2353 38.2997C34.41 34.499 30.3 34.7772 25.929 39.1249L21.0121 44.0102L8.70581 31.7829C12.2558 28.2557 17.5618 22.9837 22.8773 23.0026C26.5127 23.0262 31.1875 23.8467 35.4589 27.2183L36.0948 26.5864C32.7015 22.3424 31.8804 17.6977 31.8519 14.0856C31.833 8.80896 37.139 3.53703 40.689 0.00512695L52.9953 12.2324L48.0784 17.1177C43.7026 21.4654 43.4226 25.5443 47.2479 29.345L52.9953 35.0554L53 35.0507Z"
            fill="#FFB41F" />
        <path
            d="M97.2942 31.7825L84.9879 44.0098L80.0711 39.1245C75.6953 34.7768 71.59 34.4986 67.7647 38.2993L62.0174 44.0098L53 35.0503L58.7474 29.3398C62.5726 25.5391 62.2926 21.4555 57.9168 17.1125L53 12.2273L65.3063 0C68.8563 3.52719 74.1623 8.79912 74.1433 14.0805C74.1196 17.6926 73.289 22.342 69.9004 26.5813L70.5364 27.2131C74.803 23.851 79.4826 23.0258 83.118 22.9975C88.4287 22.9786 93.7347 28.2506 97.2895 31.7777L97.2942 31.7825Z"
            fill="#F7561E" />
        <path
            d="M74.1481 73.9437C74.1671 79.2203 68.8611 84.4922 65.3111 88.0242L53.0048 75.7969L57.9216 70.9116C62.2974 66.5639 62.5774 62.485 58.7521 58.6843L53.0048 52.9739L62.0221 44.0144L67.7695 49.7249C71.5948 53.5256 75.7048 53.2474 80.0758 48.8997L84.9926 44.0144L97.299 56.2417C93.749 59.7689 88.443 65.0408 83.1275 65.022C79.4921 64.9984 74.8173 64.1779 70.5459 60.8063L69.9099 61.4382C73.3033 65.6821 74.1244 70.3269 74.1528 73.939L74.1481 73.9437Z"
            fill="#40C1AC" />
        <path
            d="M12.5168 99.3933C12.0565 98.9501 11.8286 98.2474 11.8286 97.2808C11.8286 96.3141 12.0565 95.6115 12.5168 95.1682C12.9724 94.725 13.5657 94.5081 14.2871 94.5081H15.1224C15.8437 94.5081 16.4322 94.7297 16.8926 95.1682C17.3482 95.6115 17.5808 96.3141 17.5808 97.2808C17.5808 98.2474 17.353 98.9501 16.8926 99.3933C16.4322 99.8366 15.8437 100.053 15.1224 100.053H14.2871C13.5657 100.053 12.9772 99.8319 12.5168 99.3933ZM7.70439 100.053H8.53969C9.26107 100.053 9.84958 99.8319 10.3099 99.3933C10.7703 98.9501 10.9981 98.2474 10.9981 97.2808C10.9981 96.3141 10.7703 95.6115 10.3099 95.1682C9.85432 94.725 9.26107 94.5081 8.53969 94.5081H7.70439C6.98301 94.5081 6.3945 94.7297 5.93414 95.1682C5.47853 95.6115 5.24598 96.3141 5.24598 97.2808C5.24598 98.2474 5.47378 98.9501 5.93414 99.3933C6.3945 99.8366 6.98301 100.053 7.70439 100.053ZM66.2698 125.088H19.6595C17.1346 125.06 15.2885 124.447 14.121 123.244C12.9534 122.047 12.3697 120.396 12.3697 118.298V118.09H12.1182C11.8951 119.057 11.6388 119.868 11.3493 120.533C11.0598 121.193 10.6896 121.726 10.2435 122.127C9.79737 122.528 9.27057 122.815 8.66308 122.994C8.05085 123.174 7.32946 123.263 6.49892 123.263C4.50086 123.263 3.00113 122.73 1.99973 121.669C0.998328 120.608 0.5 119.109 0.5 117.18C0.5 114.917 1.13121 113.078 2.39364 111.654C3.65607 110.234 5.35513 108.999 7.49557 107.952L12.1609 105.637V103.359H17.1584V116.643C17.1584 117.468 17.3435 118.048 17.7184 118.383C18.0933 118.713 18.7388 118.878 19.6548 118.878H68.7614C70.9825 118.878 72.0931 117.911 72.0931 115.982V110.064H76.6729V115.982C76.6729 117.916 77.6459 118.878 79.587 118.878H83.7444C84.7458 118.878 85.5716 118.835 86.2218 118.755C86.872 118.67 87.4036 118.529 87.8022 118.321C88.2057 118.114 88.4809 117.854 88.6375 117.534C88.7894 117.218 88.8654 116.822 88.8654 116.355C88.8654 115.94 88.8321 115.412 88.7609 114.761C88.6897 114.115 88.5569 113.266 88.367 112.215L87.6599 108.367L92.2018 107.622L92.8282 111.47C92.9659 112.215 93.0798 113.04 93.1605 113.955C93.2411 114.87 93.2839 115.666 93.2839 116.355C93.2839 119.363 92.5387 121.57 91.0532 122.976C89.5678 124.381 87.1331 125.088 83.7444 125.088H80.0046C77.7835 125.088 76.0987 124.64 74.9454 123.744C73.7921 122.848 73.0233 121.434 72.6341 119.5H72.3826C71.9934 121.434 71.329 122.843 70.3845 123.744C69.4401 124.64 68.0637 125.088 66.2603 125.088H66.2698ZM12.1609 109.984L9.08073 111.432C8.33086 111.79 7.68541 112.106 7.14437 112.385C6.60333 112.663 6.14297 112.941 5.76803 113.233C5.3931 113.521 5.11784 113.818 4.93749 114.125C4.75714 114.426 4.66697 114.775 4.66697 115.157C4.66697 115.846 4.89477 116.336 5.35513 116.628C5.81075 116.916 6.65079 117.062 7.87525 117.062C9.48413 117.062 10.6042 116.911 11.2259 116.61C11.8524 116.308 12.1609 115.756 12.1609 114.954V109.989V109.984ZM73.9725 106.759H74.8078C75.5292 106.759 76.1177 106.537 76.578 106.099C77.0336 105.655 77.2662 104.953 77.2662 103.986C77.2662 103.02 77.0384 102.317 76.578 101.874C76.1224 101.43 75.5292 101.213 74.8078 101.213H73.9725C73.2511 101.213 72.6626 101.435 72.2022 101.874C71.7466 102.317 71.5141 103.02 71.5141 103.986C71.5141 104.953 71.7419 105.655 72.2022 106.099C72.6626 106.542 73.2511 106.759 73.9725 106.759ZM85.7994 129.143C85.0781 129.143 84.4896 129.365 84.0292 129.804C83.5736 130.247 83.341 130.949 83.341 131.916C83.341 132.883 83.5688 133.585 84.0292 134.029C84.4896 134.472 85.0781 134.689 85.7994 134.689H86.63C87.3514 134.689 87.9446 134.467 88.4002 134.029C88.8559 133.585 89.0884 132.883 89.0884 131.916C89.0884 130.949 88.8606 130.247 88.4002 129.804C87.9446 129.36 87.3514 129.143 86.63 129.143H85.7994ZM81.8223 129.808C81.362 129.365 80.7735 129.148 80.0521 129.148H79.2168C78.4954 129.148 77.9069 129.37 77.4465 129.808C76.9909 130.252 76.7584 130.954 76.7584 131.921C76.7584 132.888 76.9862 133.59 77.4465 134.033C77.9021 134.477 78.4954 134.694 79.2168 134.694H80.0521C80.7735 134.694 81.362 134.472 81.8223 134.033C82.2779 133.59 82.5105 132.888 82.5105 131.921C82.5105 130.954 82.2827 130.252 81.8223 129.808ZM105.315 119.236C105.192 118.119 105.016 116.897 104.793 115.572L104.166 111.724L99.6245 112.427L100.498 117.93C100.635 118.732 100.749 119.481 100.83 120.184C100.915 120.887 100.953 121.556 100.953 122.193C100.982 124.565 100.403 126.262 99.2258 127.281C98.0441 128.299 96.1931 128.813 93.6635 128.813H91.9977V135.019H93.7062C95.6236 135.019 97.3132 134.717 98.7892 134.109C100.26 133.501 101.494 132.623 102.496 131.482C103.497 130.336 104.247 128.964 104.745 127.366C105.244 125.767 105.495 123.97 105.495 121.985C105.495 121.269 105.434 120.349 105.305 119.231L105.315 119.236ZM100.92 108.414H101.755C102.477 108.414 103.065 108.192 103.526 107.754C103.981 107.311 104.214 106.608 104.214 105.641C104.214 104.675 103.986 103.972 103.526 103.529C103.065 103.086 102.477 102.869 101.755 102.869H100.92C100.199 102.869 99.6102 103.09 99.1499 103.529C98.6943 103.972 98.4617 104.675 98.4617 105.641C98.4617 106.608 98.6895 107.311 99.1499 107.754C99.6055 108.197 100.199 108.414 100.92 108.414Z"
            fill="#113342" />
        <path
            d="M7.82779 158.917H22.5308V164.505H0.5V158.917L14.8281 141.206H1.20715V135.618H22.1986V141.206L7.82779 158.917ZM27.03 164.5H33.195V142.776H27.03V164.5ZM30.1102 133.505C28.862 133.505 27.9507 133.788 27.3812 134.354C26.8117 134.92 26.5269 135.641 26.5269 136.528V137.438C26.5269 138.32 26.8117 139.046 27.3812 139.612C27.9507 140.178 28.862 140.46 30.1102 140.46C31.3583 140.46 32.2696 140.178 32.8391 139.612C33.4086 139.046 33.6934 138.324 33.6934 137.438V136.528C33.6934 135.646 33.4086 134.92 32.8391 134.354C32.2696 133.788 31.3583 133.505 30.1102 133.505ZM57.4138 149.17C57.7887 150.509 57.9738 151.91 57.9738 153.372V155.192H43.9399V155.522C43.9399 156.946 44.3291 158.073 45.1074 158.908C45.8858 159.742 47.1055 160.157 48.7713 160.157C50.048 160.157 51.0921 159.902 51.8942 159.398C52.701 158.893 53.4461 158.28 54.1438 157.573L57.2239 161.393C56.251 162.524 54.9791 163.411 53.4129 164.047C51.842 164.684 50.0622 165 48.0594 165C46.3936 165 44.9081 164.731 43.603 164.194C42.2978 163.656 41.192 162.897 40.2903 161.916C39.3885 160.935 38.7099 159.742 38.2495 158.337C37.7939 156.932 37.5613 155.357 37.5613 153.621C37.5613 151.886 37.7844 150.358 38.2258 148.967C38.6719 147.576 39.3316 146.378 40.2048 145.388C41.0781 144.393 42.1554 143.629 43.4321 143.092C44.7088 142.554 46.1658 142.285 47.8032 142.285C49.6066 142.285 51.1538 142.587 52.4447 143.195C53.7356 143.804 54.7892 144.615 55.6103 145.638C56.4313 146.661 57.0246 147.84 57.3995 149.175L57.4138 149.17ZM51.6047 151.217C51.6047 149.891 51.3057 148.821 50.7077 148.01C50.1097 147.194 49.189 146.789 47.936 146.789C46.6831 146.789 45.7054 147.194 44.9983 148.01C44.2911 148.826 43.9352 149.906 43.9352 151.259V151.589H51.5999V151.217H51.6047ZM74.3569 142.281C72.6341 142.281 71.2863 142.696 70.3181 143.521C69.3451 144.346 68.6665 145.327 68.2773 146.459H68.0258V142.776H61.8607V164.5H68.0258V150.429C68.0258 149.906 68.1349 149.444 68.358 149.043C68.581 148.642 68.88 148.307 69.255 148.029C69.6299 147.755 70.0523 147.553 70.5269 147.43C70.9967 147.307 71.4856 147.246 71.9839 147.246C73.1229 147.246 73.9155 147.586 74.3569 148.26C74.803 148.934 75.0213 149.976 75.0213 151.386V164.505H81.1864V150.891C81.1864 148.133 80.6073 146.006 79.4588 144.521C78.3055 143.03 76.6065 142.285 74.3569 142.285V142.281ZM103.459 159.742H105.5V164.5H102.083C100.972 164.5 100.047 164.156 99.3112 163.467C98.5756 162.779 98.1105 161.855 97.9159 160.695H97.6644C97.3322 162.1 96.5965 163.17 95.4575 163.901C94.3185 164.632 92.9184 165 91.2526 165C89.0599 165 87.3799 164.425 86.2124 163.269C85.0448 162.114 84.4611 160.586 84.4611 158.691C84.4611 156.408 85.3011 154.711 86.9812 153.598C88.6613 152.485 90.9441 151.929 93.8344 151.929H97.2895V150.561C97.2895 149.514 97.0142 148.68 96.4589 148.057C95.9036 147.435 94.9734 147.128 93.6683 147.128C92.4438 147.128 91.4756 147.392 90.7542 147.916C90.0329 148.439 89.4349 149.033 88.965 149.693L85.3011 146.449C86.1886 145.148 87.3087 144.124 88.6518 143.389C89.9996 142.653 91.8221 142.285 94.1286 142.285C97.2373 142.285 99.5723 142.96 101.124 144.313C102.681 145.666 103.454 147.637 103.454 150.231V159.747L103.459 159.742ZM97.2942 155.399H94.2948C91.879 155.399 90.6688 156.206 90.6688 157.823V158.441C90.6688 159.233 90.9204 159.818 91.4187 160.185C91.917 160.553 92.6242 160.742 93.5449 160.742C94.57 160.742 95.4528 160.525 96.1884 160.086C96.924 159.648 97.2895 158.936 97.2895 157.95V155.404L97.2942 155.399Z"
            fill="#113342" />
    </g>
    <defs>
        <clipPath id="clip0_32_21365">
            <rect width="105" height="165" fill="white" transform="translate(0.5)" />
        </clipPath>
    </defs>
</svg>