<svg width="39" height="39" viewBox="0 0 39 39" fill="none" xmlns="http://www.w3.org/2000/svg">
<g clip-path="url(#clip0_246_80)">
<path d="M39 13.4562V26.41H33.9624C29.4796 26.41 27.2334 28.4237 27.2334 32.4513V38.5H17.994V32.4513C17.994 28.5482 15.8811 26.5369 11.6721 26.415C11.5364 26.4125 11.4007 26.41 11.2626 26.41H6.22498V13.4562C9.86449 13.4562 15.2995 13.4562 18.0134 16.2616C19.8623 18.1882 21.8347 21.0881 22.2854 25.1156H22.9396C23.3903 21.0881 25.3627 18.1882 27.2116 16.2616C29.9254 13.4562 35.3605 13.4562 39 13.4562Z" fill="#233D4E"/>
<path d="M14.1728 33.7631V38.5H7.98416V34.5297C7.98416 32.4264 6.32675 30.7237 4.27922 30.7237H0V21.9618H2.68481C3.9206 21.9618 5.11035 22.1634 6.22498 22.5343V26.41H11.2626C11.4007 26.41 11.5364 26.4125 11.6721 26.415C13.2375 28.4312 14.1728 30.9851 14.1728 33.7631Z" fill="#F7561E"/>
<path d="M22.6125 0.5C19.1305 0.5 16.3076 3.39991 16.3076 6.97688C16.3076 10.5538 19.1305 13.4562 22.6125 13.4562C26.0945 13.4562 28.9174 10.5538 28.9174 6.97688C28.9174 3.39991 26.0945 0.5 22.6125 0.5Z" fill="#113342"/>
</g>
<defs>
<clipPath id="clip0_246_80">
<rect width="39" height="38" fill="white" transform="translate(0 0.5)"/>
</clipPath>
</defs>
</svg>
