<svg width="300" height="300" viewBox="0 0 300 300" fill="none" xmlns="http://www.w3.org/2000/svg">
<g clip-path="url(#clip0_295_1333)">
<mask id="mask0_295_1333" style="mask-type:luminance" maskUnits="userSpaceOnUse" x="0" y="0" width="300" height="300">
<path d="M300 0H0V300H300V0Z" fill="white"/>
</mask>
<g mask="url(#mask0_295_1333)">
<path d="M37.6418 118.13C43.1679 116.94 48.6121 120.455 49.8029 125.98C50.9929 131.506 47.4782 136.952 41.9521 138.142C36.426 139.333 30.9809 135.818 29.7901 130.292C28.6001 124.765 32.1157 119.32 37.6418 118.13Z" fill="#F7561E"/>
<path d="M239.963 53.2281C245.407 52.0557 250.772 55.5178 251.945 60.9626C253.118 66.4075 249.655 71.7716 244.21 72.9449C238.766 74.1174 233.401 70.6553 232.228 65.2105C231.056 59.7656 234.519 54.4006 239.963 53.2281Z" fill="#0373E3"/>
<path d="M147.321 23.2383C153.01 22.0134 158.614 25.6314 159.839 31.3191C161.065 37.0077 157.446 42.6139 151.757 43.8389C146.068 45.0647 140.464 41.4458 139.238 35.7571C138.013 30.0685 141.632 24.4633 147.321 23.2383Z" fill="#FFB636"/>
<path d="M137.321 251.239C143.01 250.013 148.613 253.631 149.839 259.319C151.064 265.008 147.447 270.612 141.758 271.838C136.069 273.063 130.464 269.446 129.238 263.757C128.013 258.07 131.632 252.464 137.321 251.239Z" fill="#0373E3"/>
<path d="M248.492 197.622C254.261 196.379 259.946 200.049 261.189 205.819C262.432 211.589 258.761 217.273 252.991 218.516C247.221 219.759 241.537 216.089 240.294 210.319C239.051 204.549 242.722 198.865 248.492 197.622Z" fill="#F7561E"/>
<path d="M173.035 64.0333C220.514 76.7553 248.689 125.557 235.968 173.035C223.245 220.514 174.442 248.689 126.964 235.967C79.486 223.244 51.31 174.443 64.033 126.965C76.754 79.4863 125.556 51.3113 173.035 64.0333Z" fill="#F7561E"/>
<path d="M135.25 183.818C134.235 184.735 132.672 184.668 131.737 183.67L99.4307 149.169C98.3252 147.789 97.79 146.05 97.932 144.301C98.0737 142.55 98.8834 140.92 100.198 139.732C101.513 138.545 103.236 137.89 105.023 137.897C106.81 137.904 108.53 138.573 109.839 139.771L133.122 164.635C133.744 165.301 134.787 165.344 135.463 164.732L184.293 120.641C185.697 119.557 187.468 119.033 189.249 119.177C191.031 119.319 192.692 120.116 193.903 121.41C195.113 122.701 195.784 124.396 195.779 126.151C195.775 127.906 195.096 129.593 193.878 130.878L135.25 183.818Z" fill="white"/>
<path d="M80.1595 58.2725C78.0862 52.1265 73.6499 44.6758 64.1626 40.2002" stroke="#F7561E" stroke-width="5.28661" stroke-linecap="round"/>
<path d="M66.4239 237.164C65.2799 237.041 63.9779 236.824 62.4999 236.5C41.9999 232 60.2499 249.75 60.2499 249.75C60.2499 249.75 66.0539 261.143 52.3479 255.425" stroke="#F7561E" stroke-width="5" stroke-linecap="round"/>
<path d="M259.351 134.197C263.508 135.028 267.94 138.671 272.279 147.102C285.636 173.055 249.223 164.362 259.249 146.056" stroke="#FFB636" stroke-width="4.52063" stroke-linecap="round"/>
<path d="M213.2 240.344C215.347 244.258 219.867 248.456 229 251.5C231.083 252.194 232.917 252.889 234.532 253.577" stroke="#213262" stroke-width="5" stroke-linecap="round"/>
</g>
</g>
<defs>
<clipPath id="clip0_295_1333">
<rect width="300" height="300" fill="white"/>
</clipPath>
</defs>
</svg>
