<svg width="300" height="300" viewBox="0 0 300 300" fill="none" xmlns="http://www.w3.org/2000/svg">
<mask id="mask0_315_19356" style="mask-type:luminance" maskUnits="userSpaceOnUse" x="0" y="0" width="300" height="300">
<path d="M300 0H0V300H300V0Z" fill="white"/>
</mask>
<g mask="url(#mask0_315_19356)">
<path d="M37.6418 118.13C43.1679 116.94 48.6121 120.455 49.8029 125.98C50.9929 131.506 47.4782 136.952 41.9521 138.142C36.426 139.333 30.9809 135.818 29.7901 130.292C28.6001 124.765 32.1157 119.32 37.6418 118.13Z" fill="#FFBC0F"/>
<path d="M239.963 53.2279C245.407 52.0554 250.772 55.5175 251.945 60.9624C253.118 66.4072 249.655 71.7714 244.21 72.9447C238.766 74.1171 233.401 70.655 232.228 65.2102C231.056 59.7654 234.519 54.4003 239.963 53.2279Z" fill="#0373E3"/>
<path d="M147.321 23.2381C153.01 22.0131 158.614 25.6312 159.839 31.3189C161.065 37.0075 157.446 42.6137 151.757 43.8386C146.068 45.0645 140.464 41.4455 139.238 35.7569C138.013 30.0683 141.632 24.463 147.321 23.2381Z" fill="#FFB636"/>
<path d="M137.321 251.239C143.01 250.013 148.613 253.631 149.839 259.319C151.064 265.008 147.447 270.612 141.758 271.838C136.069 273.063 130.464 269.446 129.238 263.757C128.013 258.07 131.632 252.463 137.321 251.239Z" fill="#0373E3"/>
<path d="M248.492 197.621C254.261 196.379 259.946 200.049 261.189 205.819C262.432 211.588 258.761 217.273 252.992 218.515C247.222 219.759 241.537 216.089 240.294 210.319C239.051 204.549 242.722 198.865 248.492 197.621Z" fill="#F7561E"/>
<path d="M173.035 64.0328C220.514 76.7548 248.689 125.557 235.968 173.035C223.245 220.514 174.442 248.689 126.964 235.967C79.4862 223.244 51.3102 174.443 64.0332 126.965C76.7542 79.4859 125.556 51.3108 173.035 64.0328Z" fill="#FFBC0F"/>
<path d="M135.25 183.817C134.235 184.734 132.672 184.668 131.737 183.669L99.4307 149.169C98.3252 147.788 97.79 146.049 97.932 144.3C98.0737 142.549 98.8834 140.919 100.198 139.732C101.513 138.545 103.236 137.89 105.023 137.897C106.81 137.903 108.53 138.572 109.839 139.771L133.122 164.635C133.744 165.3 134.787 165.343 135.463 164.732L184.293 120.64C185.697 119.556 187.468 119.033 189.249 119.176C191.031 119.319 192.692 120.115 193.903 121.409C195.113 122.701 195.784 124.395 195.779 126.151C195.775 127.906 195.096 129.593 193.878 130.877L135.25 183.817Z" fill="white"/>
<path d="M80.1595 58.2723C78.0862 52.1263 73.6499 44.6755 64.1626 40.2" stroke="#FFBC0F" stroke-width="5.28661" stroke-linecap="round"/>
<path d="M66.4241 237.164C65.2801 237.041 63.9781 236.824 62.5001 236.5C42.0001 232 60.2501 249.75 60.2501 249.75C60.2501 249.75 66.0541 261.143 52.3481 255.425" stroke="#F7561E" stroke-width="5" stroke-linecap="round"/>
<path d="M259.351 134.197C263.508 135.027 267.94 138.671 272.28 147.102C285.637 173.055 249.224 164.362 259.249 146.055" stroke="#FFB636" stroke-width="4.52063" stroke-linecap="round"/>
<path d="M213.2 240.344C215.347 244.258 219.867 248.456 229 251.5C231.083 252.194 232.917 252.889 234.532 253.577" stroke="#213262" stroke-width="5" stroke-linecap="round"/>
</g>
</svg>
