<svg width="24" height="20" viewBox="0 0 24 20" fill="none" xmlns="http://www.w3.org/2000/svg">
<path d="M12.0263 13.2C12.33 9.83625 15.1575 7.2 18.6 7.2C18.9338 7.2 19.26 7.22625 19.5788 7.27125L11.6063 0.2625C11.3813 0.075 11.0813 0 10.8188 0C10.5563 0 10.2563 0.0375 9.99375 0.3L0.375 8.68125C0.1125 8.94375 0 9.24375 0 9.58125C0 10.2563 0.525 10.785 1.2 10.785H2.4V13.3988C2.39625 13.4325 2.39625 13.4663 2.39625 13.5038V17.7038C2.39625 18.5325 3.0675 19.2038 3.89625 19.2038H4.49625C4.54125 19.2038 4.58625 19.2 4.63125 19.1963C4.6875 19.2 4.74375 19.2038 4.8 19.2038H6.89625C7.725 19.2038 8.39625 18.5325 8.39625 17.7038V14.4038C8.39625 13.74 8.9325 13.2038 9.59625 13.2038H12.0225L12.0263 13.2ZM24 13.8C24 12.3678 23.4311 10.9943 22.4184 9.98162C21.4057 8.96893 20.0322 8.4 18.6 8.4C17.1678 8.4 15.7943 8.96893 14.7816 9.98162C13.7689 10.9943 13.2 12.3678 13.2 13.8C13.2 15.2322 13.7689 16.6057 14.7816 17.6184C15.7943 18.6311 17.1678 19.2 18.6 19.2C20.0322 19.2 21.4057 18.6311 22.4184 17.6184C23.4311 16.6057 24 15.2322 24 13.8ZM21.1238 12.1763C21.3563 12.4088 21.3563 12.7913 21.1238 13.0238L18.4237 15.7238C18.1912 15.9563 17.8088 15.9563 17.5763 15.7238L16.0763 14.2238C15.8438 13.9913 15.8438 13.6088 16.0763 13.3763C16.3088 13.1438 16.6912 13.1438 16.9237 13.3763L18 14.4525L20.2763 12.1763C20.5088 11.9438 20.8913 11.9438 21.1238 12.1763Z" fill="#113342"/>
</svg>
