<svg width="18" height="18" viewBox="0 0 18 18" fill="none" xmlns="http://www.w3.org/2000/svg">
<path d="M3 15.7578C2.5875 15.7578 2.2345 15.6111 1.941 15.3176C1.6475 15.0241 1.5005 14.6708 1.5 14.2578V6.00781C1.5 5.59531 1.647 5.24231 1.941 4.94881C2.235 4.65531 2.588 4.50831 3 4.50781H6V3.00781C6 2.59531 6.147 2.24231 6.441 1.94881C6.735 1.65531 7.088 1.50831 7.5 1.50781H10.5C10.9125 1.50781 11.2657 1.65481 11.5597 1.94881C11.8538 2.24281 12.0005 2.59581 12 3.00781V4.50781H15C15.4125 4.50781 15.7657 4.65481 16.0597 4.94881C16.3538 5.24281 16.5005 5.59581 16.5 6.00781V14.2578C16.5 14.6703 16.3533 15.0236 16.0597 15.3176C15.7662 15.6116 15.413 15.7583 15 15.7578H3ZM7.5 4.50781H10.5V3.00781H7.5V4.50781Z" fill="#113342"/>
</svg>
