<svg width="16" height="16" viewBox="0 0 16 16" fill="none" xmlns="http://www.w3.org/2000/svg">
<path d="M7.99967 1.34131C4.31967 1.34131 1.33301 4.32798 1.33301 8.00798C1.33301 11.688 4.31967 14.6746 7.99967 14.6746C11.6797 14.6746 14.6663 11.688 14.6663 8.00798C14.6663 4.32798 11.6797 1.34131 7.99967 1.34131ZM2.66634 8.00798C2.66634 5.06131 5.05301 2.67464 7.99967 2.67464C9.23301 2.67464 10.3663 3.09464 11.2663 3.80131L3.79301 11.2746C3.06076 10.3434 2.66383 9.19259 2.66634 8.00798ZM7.99967 13.3413C6.76634 13.3413 5.63301 12.9213 4.73301 12.2146L12.2063 4.74131C12.9386 5.6725 13.3355 6.82337 13.333 8.00798C13.333 10.9546 10.9463 13.3413 7.99967 13.3413Z" fill="#D00416"/>
</svg>
