<svg width="28" height="20" viewBox="0 0 28 20" fill="none" xmlns="http://www.w3.org/2000/svg">
<rect y="0.0078125" width="28" height="20" rx="10" fill="#1FC16B"/>
<path d="M11.886 5.22722L12.4245 5.05522C12.9285 4.89422 13.4675 5.15472 13.6835 5.66372L14.1135 6.67772C14.301 7.11922 14.197 7.63872 13.8565 7.96172L12.91 8.86072C12.9684 9.39872 13.149 9.92822 13.452 10.4492C13.7402 10.9531 14.1262 11.3943 14.5875 11.7467L15.7255 11.3667C16.1565 11.2232 16.626 11.3887 16.8905 11.7772L17.5065 12.6822C17.8145 13.1342 17.759 13.7572 17.3775 14.1402L16.9685 14.5507C16.5615 14.9592 15.9805 15.1077 15.4425 14.9397C14.1732 14.5437 13.006 13.3682 11.941 11.4132C10.8747 9.45488 10.4984 7.79355 10.812 6.42922C10.944 5.85522 11.353 5.39772 11.887 5.22722" fill="white"/>
</svg>
