<svg width="18" height="18" viewBox="0 0 18 18" fill="none" xmlns="http://www.w3.org/2000/svg">
<path d="M13.0282 13.9481L12.537 13.4561C12.472 13.3916 12.3953 13.3593 12.3068 13.3593C12.2178 13.3593 12.141 13.3916 12.0765 13.4561C12.012 13.5201 11.9797 13.5958 11.9797 13.6833C11.9797 13.7708 12.012 13.8468 12.0765 13.9113L12.7215 14.5563C12.8145 14.6498 12.9193 14.6966 13.0358 14.6966C13.1523 14.6966 13.257 14.6498 13.35 14.5563L14.9235 13.0061C14.988 12.9416 15.0228 12.8673 15.0278 12.7833C15.0328 12.6988 14.998 12.6196 14.9235 12.5456C14.859 12.4811 14.78 12.4488 14.6865 12.4488C14.593 12.4488 14.5137 12.4813 14.4487 12.5463L13.0282 13.9481ZM12.5483 6.55606C12.6548 6.55606 12.7437 6.52031 12.8153 6.44881C12.8868 6.37731 12.9228 6.28806 12.9233 6.18106C12.9238 6.07406 12.8877 5.98481 12.8153 5.91331C12.7428 5.84181 12.6538 5.80606 12.5483 5.80606H5.45175C5.34525 5.80606 5.256 5.84181 5.184 5.91331C5.112 5.98481 5.07625 6.07406 5.07675 6.18106C5.07725 6.28806 5.113 6.37731 5.184 6.44881C5.255 6.52031 5.34425 6.55606 5.45175 6.55606H12.5483ZM13.5 16.5948C12.6645 16.5948 11.9557 16.3036 11.3737 15.7211C10.7913 15.1391 10.5 14.4303 10.5 13.5948C10.5 12.7593 10.7913 12.0503 11.3737 11.4678C11.9563 10.8853 12.665 10.5943 13.5 10.5948C14.335 10.5953 15.044 10.8863 15.627 11.4678C16.21 12.0493 16.501 12.7583 16.5 13.5948C16.5 14.4298 16.209 15.1386 15.627 15.7211C15.044 16.3036 14.335 16.5948 13.5 16.5948ZM3 15.5478V4.21981C3 3.88381 3.118 3.59781 3.354 3.36181C3.59 3.12581 3.876 3.00781 4.212 3.00781H13.7887C14.1237 3.00781 14.4095 3.12581 14.646 3.36181C14.882 3.59781 15 3.88381 15 4.21981V8.05606C15 8.21106 14.9365 8.33731 14.8095 8.43481C14.6825 8.53231 14.5417 8.56406 14.3873 8.53006C13.9988 8.46206 13.6112 8.43581 13.2247 8.45131C12.8377 8.46631 12.4535 8.52681 12.072 8.63281H5.4525C5.346 8.63281 5.25675 8.66856 5.18475 8.74006C5.11275 8.81156 5.077 8.90081 5.0775 9.00781C5.078 9.11481 5.11375 9.20406 5.18475 9.27556C5.25575 9.34706 5.345 9.38281 5.4525 9.38281H10.5615C10.1855 9.64331 9.854 9.94906 9.567 10.3001C9.28 10.6511 9.0435 11.0376 8.8575 11.4596H5.4525C5.346 11.4596 5.25675 11.4953 5.18475 11.5668C5.11275 11.6383 5.077 11.7276 5.0775 11.8346C5.078 11.9416 5.11375 12.0308 5.18475 12.1023C5.25575 12.1738 5.345 12.2096 5.4525 12.2096H8.61C8.556 12.4116 8.514 12.6153 8.484 12.8208C8.454 13.0263 8.43875 13.2408 8.43825 13.4643C8.43825 13.7028 8.4575 13.9423 8.496 14.1828C8.5345 14.4228 8.5845 14.6608 8.646 14.8968C8.6795 14.9863 8.657 15.0596 8.5785 15.1166C8.4995 15.1736 8.4245 15.1761 8.3535 15.1241L8.16675 14.9966C8.11125 14.9596 8.05275 14.9411 7.99125 14.9411C7.92975 14.9411 7.871 14.9593 7.815 14.9958L7.15725 15.4518C7.10175 15.4883 7.04325 15.5066 6.98175 15.5066C6.92025 15.5066 6.8615 15.4883 6.8055 15.4518L6.14775 14.9958C6.09175 14.9593 6.033 14.9411 5.9715 14.9411C5.91 14.9411 5.8515 14.9593 5.796 14.9958L5.13825 15.4518C5.08275 15.4888 5.02425 15.5073 4.96275 15.5073C4.90125 15.5073 4.8425 15.4888 4.7865 15.4518L4.12875 14.9966C4.07275 14.9601 4.014 14.9418 3.9525 14.9418C3.891 14.9418 3.8325 14.9601 3.777 14.9966L3.19125 15.4518C3.16225 15.4713 3.09875 15.5038 3.00075 15.5493" fill="#F7561E"/>
</svg>
