<svg width="23" height="24" viewBox="0 0 23 24" fill="none" xmlns="http://www.w3.org/2000/svg">
<path fill-rule="evenodd" clip-rule="evenodd" d="M17.6449 6.5L16.8773 20.117C16.8487 20.6264 16.6346 21.1051 16.2788 21.4551C15.923 21.8052 15.4525 22.0001 14.9635 22H8.03666C7.54767 22.0001 7.07713 21.8052 6.72136 21.4551C6.36558 21.1051 6.15148 20.6264 6.12287 20.117L5.35717 6.5H3.35425V5.5C3.35425 5.36739 3.40473 5.24021 3.49459 5.14645C3.58445 5.05268 3.70633 5 3.83341 5H19.1667C19.2938 5 19.4157 5.05268 19.5056 5.14645C19.5954 5.24021 19.6459 5.36739 19.6459 5.5V6.5H17.6449ZM9.58342 2.5H13.4167C13.5438 2.5 13.6657 2.55268 13.7556 2.64645C13.8454 2.74021 13.8959 2.86739 13.8959 3V4H9.10425V3C9.10425 2.86739 9.15473 2.74021 9.24459 2.64645C9.33445 2.55268 9.45633 2.5 9.58342 2.5ZM8.62508 9L9.10425 18H10.5417L10.1584 9H8.62508ZM12.9376 9L12.4584 18H13.8959L14.3751 9H12.9376Z" fill="#D00416"/>
</svg>
