<svg width="19" height="18" viewBox="0 0 19 18" fill="none" xmlns="http://www.w3.org/2000/svg">
<path d="M16.7048 13.9753V16.8828C16.7048 17.0319 16.6456 17.175 16.5401 17.2805C16.4346 17.386 16.2915 17.4453 16.1423 17.4453C15.9931 17.4453 15.8501 17.386 15.7446 17.2805C15.6391 17.175 15.5798 17.0319 15.5798 16.8828V13.9753C15.5772 13.2533 15.426 12.5396 15.1357 11.8785C14.8454 11.2175 14.4222 10.6232 13.8923 10.1328V14.2355C13.8922 14.3566 13.8531 14.4743 13.7807 14.5714C13.7083 14.6684 13.6066 14.7395 13.4906 14.7741C13.3746 14.8087 13.2505 14.8049 13.1368 14.7634C13.0231 14.7218 12.9258 14.6447 12.8594 14.5435L12.1085 13.3967C12.1029 13.3882 12.0973 13.3791 12.0923 13.37C11.982 13.1752 11.7989 13.0322 11.5831 12.9725C11.3674 12.9127 11.1368 12.9411 10.942 13.0514C10.7472 13.1617 10.6043 13.3449 10.5445 13.5606C10.4848 13.7764 10.5132 14.007 10.6235 14.2017L12.1795 16.5776C12.2612 16.7025 12.2899 16.8546 12.2594 17.0007C12.2289 17.1467 12.1416 17.2746 12.0167 17.3563C11.8919 17.438 11.7397 17.4667 11.5937 17.4362C11.4476 17.4057 11.3197 17.3184 11.238 17.1935L9.67288 14.8029L9.65601 14.7762C9.62929 14.7298 9.60468 14.6827 9.58218 14.6356H4.32983C4.18065 14.6356 4.03758 14.5763 3.93209 14.4708C3.8266 14.3653 3.76733 14.2223 3.76733 14.0731V6.75777C3.76733 6.4594 3.88586 6.17325 4.09684 5.96227C4.30782 5.75129 4.59397 5.63277 4.89233 5.63277H8.26733V9.00777C8.26733 9.15695 8.3266 9.30003 8.43209 9.40551C8.53758 9.511 8.68065 9.57027 8.82983 9.57027C8.97902 9.57027 9.12209 9.511 9.22758 9.40551C9.33307 9.30003 9.39233 9.15695 9.39233 9.00777V5.63277H12.7673C13.0657 5.63277 13.3519 5.75129 13.5628 5.96227C13.7738 6.17325 13.8923 6.4594 13.8923 6.75777V8.6998C14.7557 9.28322 15.4633 10.0689 15.9535 10.9884C16.4437 11.9079 16.7017 12.9333 16.7048 13.9753ZM9.39233 2.4905L10.6819 3.78074C10.7874 3.88628 10.9306 3.94558 11.0798 3.94558C11.2291 3.94558 11.3723 3.88628 11.4778 3.78074C11.5834 3.67519 11.6426 3.53203 11.6426 3.38277C11.6426 3.2335 11.5834 3.09035 11.4778 2.9848L9.2278 0.734798C9.17556 0.682499 9.11352 0.641009 9.04524 0.612702C8.97695 0.584394 8.90376 0.569824 8.82983 0.569824C8.75591 0.569824 8.68272 0.584394 8.61443 0.612702C8.54614 0.641009 8.48411 0.682499 8.43186 0.734798L6.18186 2.9848C6.07632 3.09035 6.01702 3.2335 6.01702 3.38277C6.01702 3.53203 6.07632 3.67519 6.18186 3.78074C6.28741 3.88628 6.43057 3.94558 6.57983 3.94558C6.7291 3.94558 6.87226 3.88628 6.9778 3.78074L8.26733 2.4905V5.63277H9.39233V2.4905Z" fill="#113342"/>
</svg>
