<svg width="18" height="19" viewBox="0 0 18 19" fill="none" xmlns="http://www.w3.org/2000/svg">
<path d="M8.94754 1.89486C7.41754 1.51986 5.93254 1.63236 4.62004 2.10486C4.08004 2.29986 3.93754 3.01986 4.38754 3.38736C5.2444 4.08762 5.93463 4.96985 6.40812 5.97003C6.88162 6.97021 7.12652 8.06326 7.12504 9.16986C7.12652 10.2765 6.88162 11.3695 6.40812 12.3697C5.93463 13.3699 5.2444 14.2521 4.38754 14.9524C3.94504 15.3199 4.07254 16.0399 4.62004 16.2274C5.40004 16.5124 6.24754 16.6699 7.12504 16.6699C11.6625 16.6699 15.2625 12.6349 14.5275 7.96986C14.07 5.02986 11.835 2.59986 8.94754 1.89486Z" fill="#113342"/>
</svg>
