<svg width="58" height="58" viewBox="0 0 58 58" fill="none" xmlns="http://www.w3.org/2000/svg">
<path fill-rule="evenodd" clip-rule="evenodd" d="M31.6266 51.6878L32.9364 49.4742C33.9514 47.7583 34.4589 46.898 35.2758 46.4243C36.0926 45.9482 37.1197 45.9313 39.1738 45.8951C42.2092 45.8443 44.1111 45.6582 45.7061 44.9961C47.1721 44.3888 48.5042 43.4988 49.6262 42.3767C50.7483 41.2547 51.6383 39.9226 52.2456 38.4566C53.1663 36.2381 53.1663 33.4227 53.1663 27.7918V25.3752C53.1663 17.4654 53.1663 13.5093 51.3853 10.6045C50.3895 8.97856 49.0231 7.61133 47.3978 6.61458C44.4905 4.8335 40.5344 4.8335 32.6247 4.8335H25.3747C17.4649 4.8335 13.5088 4.8335 10.604 6.61458C8.97807 7.61035 7.61084 8.97674 6.61409 10.6021C4.83301 13.5093 4.83301 17.4678 4.83301 25.3752V27.7918C4.83301 33.4227 4.83301 36.2381 5.75134 38.4566C6.35886 39.9228 7.24929 41.255 8.37177 42.3771C9.49425 43.4992 10.8268 44.3891 12.2933 44.9961C13.8883 45.6582 15.7902 45.8419 18.8255 45.8951C20.8797 45.9313 21.9068 45.9482 22.7236 46.4243C23.538 46.898 24.0479 47.7559 25.0629 49.4742L26.3728 51.6878C27.54 53.6598 30.4569 53.6598 31.6266 51.6878ZM18.1247 23.4781C18.1247 27.7121 23.3519 32.2143 26.5588 34.5778C27.656 35.3874 28.2046 35.791 28.9997 35.791C29.7948 35.791 30.3433 35.3874 31.4405 34.5778C34.6474 32.2143 39.8747 27.7145 39.8747 23.4781C39.8747 17.0087 33.8934 14.592 28.9997 19.5897C24.1059 14.592 18.1247 17.0087 18.1247 23.4781Z" fill="#F7561E"/>
</svg>
