<svg width="19" height="18" viewBox="0 0 19 18" fill="none" xmlns="http://www.w3.org/2000/svg">
<path d="M8.3735 4.51834C8.56959 4.55105 8.74467 4.66027 8.86027 4.822C8.97587 4.98372 9.02253 5.18473 8.99 5.38084L8.82275 6.38284H11.0525L11.2603 5.13484C11.2929 4.93862 11.4021 4.76339 11.5639 4.6477C11.7257 4.53201 11.9269 4.48535 12.1231 4.51797C12.3194 4.55059 12.4946 4.65983 12.6103 4.82165C12.726 4.98347 12.7726 5.18462 12.74 5.38084L12.5728 6.38284H13.25C13.4489 6.38284 13.6397 6.46186 13.7803 6.60251C13.921 6.74317 14 6.93393 14 7.13284C14 7.33176 13.921 7.52252 13.7803 7.66318C13.6397 7.80383 13.4489 7.88284 13.25 7.88284H12.323L11.948 10.1328H12.6252C12.8242 10.1328 13.0149 10.2119 13.1556 10.3525C13.2962 10.4932 13.3752 10.6839 13.3752 10.8828C13.3752 11.0818 13.2962 11.2725 13.1556 11.4132C13.0149 11.5538 12.8242 11.6328 12.6252 11.6328H11.6975L11.4897 12.8808C11.4571 13.0771 11.3479 13.2523 11.1861 13.368C11.0243 13.4837 10.8231 13.5303 10.6269 13.4977C10.4306 13.4651 10.2554 13.3559 10.1397 13.194C10.024 13.0322 9.97738 12.8311 10.01 12.6348L10.1772 11.6328H7.9475L7.73975 12.8808C7.70713 13.0771 7.59789 13.2523 7.43607 13.368C7.27425 13.4837 7.0731 13.5303 6.87687 13.4977C6.68065 13.4651 6.50542 13.3559 6.38973 13.194C6.27404 13.0322 6.22738 12.8311 6.26 12.6348L6.42725 11.6328H5.75C5.55109 11.6328 5.36032 11.5538 5.21967 11.4132C5.07902 11.2725 5 11.0818 5 10.8828C5 10.6839 5.07902 10.4932 5.21967 10.3525C5.36032 10.2119 5.55109 10.1328 5.75 10.1328H6.677L7.052 7.88284H6.37475C6.17584 7.88284 5.98507 7.80383 5.84442 7.66318C5.70377 7.52252 5.62475 7.33176 5.62475 7.13284C5.62475 6.93393 5.70377 6.74317 5.84442 6.60251C5.98507 6.46186 6.17584 6.38284 6.37475 6.38284H7.3025L7.51025 5.13484C7.54296 4.93876 7.65217 4.76368 7.8139 4.64808C7.97563 4.53248 8.17663 4.48582 8.37275 4.51834M8.57225 7.88284L8.19725 10.1328H10.4262L10.8012 7.88284H8.57225Z" fill="#113342"/>
</svg>
