<svg width="18" height="18" viewBox="0 0 18 18" fill="none" xmlns="http://www.w3.org/2000/svg">
<path fill-rule="evenodd" clip-rule="evenodd" d="M1.32101 8.35719C1.18547 8.35723 1.05339 8.31442 0.943633 8.2349C0.833879 8.15537 0.75207 8.04318 0.709894 7.91437C0.667718 7.78557 0.667334 7.64672 0.708796 7.51768C0.750258 7.38864 0.831445 7.276 0.940757 7.19587L8.62611 1.55994C8.735 1.48012 8.86625 1.4366 9.00125 1.43557C9.13626 1.43453 9.26816 1.47602 9.37826 1.55416L13.4999 4.47916V3.85719C13.4999 3.6867 13.5677 3.52318 13.6882 3.40262C13.8088 3.28206 13.9723 3.21433 14.1428 3.21433H14.7857C14.9561 3.21433 15.1197 3.28206 15.2402 3.40262C15.3608 3.52318 15.4285 3.6867 15.4285 3.85719V5.84812L17.3198 7.19008C17.431 7.26902 17.5142 7.38127 17.5575 7.51063C17.6007 7.63998 17.6016 7.77973 17.5602 7.90966C17.5188 8.0396 17.4371 8.15298 17.3269 8.23343C17.2168 8.31388 17.084 8.35722 16.9476 8.35719H15.4285V15.4286C15.4285 15.7696 15.293 16.0966 15.0519 16.3378C14.8108 16.5789 14.4838 16.7143 14.1428 16.7143H3.85708C3.51609 16.7143 3.18906 16.5789 2.94794 16.3378C2.70682 16.0966 2.57136 15.7696 2.57136 15.4286V8.35719H1.32101ZM10.9285 9.64291V14.7858H13.4999V9.64291H10.9285Z" fill="#A4A4A4"/>
</svg>
