<svg width="24" height="25" viewBox="0 0 24 25" fill="none" xmlns="http://www.w3.org/2000/svg">
<path d="M12 2.2C6.48 2.2 2 6.68 2 12.2C2 17.72 6.48 22.2 12 22.2C17.52 22.2 22 17.72 22 12.2C22 6.68 17.52 2.2 12 2.2ZM17 17.67C15.29 17.67 13.69 16.93 12.41 15.56C10.96 16.87 9.07 17.67 7 17.67C6.59 17.67 6.25 17.33 6.25 16.92C6.25 16.51 6.59 16.17 7 16.17C10.47 16.17 13.34 13.42 13.71 9.9H12H7.01C6.6 9.9 6.26 9.56 6.26 9.15C6.26 8.74 6.6 8.41 7.01 8.41H11.25V7.48C11.25 7.07 11.59 6.73 12 6.73C12.41 6.73 12.75 7.07 12.75 7.48V8.41H14.44C14.46 8.41 14.48 8.4 14.5 8.4C14.52 8.4 14.54 8.41 14.56 8.41H16.99C17.4 8.41 17.74 8.75 17.74 9.16C17.74 9.57 17.4 9.91 16.99 9.91H15.21C15.06 11.62 14.42 13.19 13.44 14.47C14.44 15.58 15.69 16.18 17 16.18C17.41 16.18 17.75 16.52 17.75 16.93C17.75 17.34 17.41 17.67 17 17.67Z" fill="#113342"/>
</svg>
