<svg width="24" height="25" viewBox="0 0 24 25" fill="none" xmlns="http://www.w3.org/2000/svg">
<path d="M18.75 8.2V10.3C18.31 10.24 17.81 10.21 17.25 10.2V8.2C17.25 5.05 16.36 2.95 12 2.95C7.64 2.95 6.75 5.05 6.75 8.2V10.2C6.19 10.21 5.69 10.24 5.25 10.3V8.2C5.25 5.3 5.95 1.45 12 1.45C18.05 1.45 18.75 5.3 18.75 8.2Z" fill="#113342"/>
<path d="M18.75 10.3C18.31 10.24 17.81 10.21 17.25 10.2H6.75C6.19 10.21 5.69 10.24 5.25 10.3C2.7 10.61 2 11.86 2 15.2V17.2C2 21.2 3 22.2 7 22.2H17C21 22.2 22 21.2 22 17.2V15.2C22 11.86 21.3 10.61 18.75 10.3ZM8.71 16.91C8.52 17.09 8.26 17.2 8 17.2C7.87 17.2 7.74 17.17 7.62 17.12C7.49 17.07 7.39 17 7.29 16.91C7.11 16.72 7 16.46 7 16.2C7 16.07 7.03 15.94 7.08 15.82C7.13 15.7 7.2 15.59 7.29 15.49C7.39 15.4 7.49 15.33 7.62 15.28C7.99 15.12 8.43 15.21 8.71 15.49C8.8 15.59 8.87 15.7 8.92 15.82C8.97 15.94 9 16.07 9 16.2C9 16.46 8.89 16.72 8.71 16.91ZM12.92 16.58C12.87 16.7 12.8 16.81 12.71 16.91C12.52 17.09 12.26 17.2 12 17.2C11.73 17.2 11.48 17.09 11.29 16.91C11.2 16.81 11.13 16.7 11.08 16.58C11.03 16.46 11 16.33 11 16.2C11 15.93 11.11 15.68 11.29 15.49C11.66 15.12 12.33 15.12 12.71 15.49C12.89 15.68 13 15.93 13 16.2C13 16.33 12.97 16.46 12.92 16.58ZM16.71 16.91C16.52 17.09 16.26 17.2 16 17.2C15.74 17.2 15.48 17.09 15.29 16.91C15.11 16.72 15 16.47 15 16.2C15 15.93 15.11 15.68 15.29 15.49C15.67 15.12 16.34 15.12 16.71 15.49C16.75 15.54 16.79 15.59 16.83 15.65C16.87 15.7 16.9 15.76 16.92 15.82C16.95 15.88 16.97 15.94 16.98 16C16.99 16.07 17 16.14 17 16.2C17 16.46 16.89 16.72 16.71 16.91Z" fill="#113342"/>
</svg>
