<svg width="24" height="25" viewBox="0 0 24 25" fill="none" xmlns="http://www.w3.org/2000/svg">
<path d="M16.8 2.20001H14.2C11 2.20001 9 4.20001 9 7.40001V11.45H15.25C15.66 11.45 16 11.79 16 12.2C16 12.61 15.66 12.95 15.25 12.95H9V17C9 20.2 11 22.2 14.2 22.2H16.79C19.99 22.2 21.99 20.2 21.99 17V7.40001C22 4.20001 20 2.20001 16.8 2.20001Z" fill="#D00416"/>
<path d="M4.55994 11.45L6.62994 9.38001C6.77994 9.23001 6.84994 9.04001 6.84994 8.85001C6.84994 8.66001 6.77994 8.46001 6.62994 8.32001C6.33994 8.03001 5.85994 8.03001 5.56994 8.32001L2.21994 11.67C1.92994 11.96 1.92994 12.44 2.21994 12.73L5.56994 16.08C5.85994 16.37 6.33994 16.37 6.62994 16.08C6.91994 15.79 6.91994 15.31 6.62994 15.02L4.55994 12.95H8.99994V11.45H4.55994Z" fill="#D00416"/>
</svg>
