<svg width="18" height="19" viewBox="0 0 18 19" fill="none" xmlns="http://www.w3.org/2000/svg">
<path d="M9 1.66992C13.1423 1.66992 16.5 5.02767 16.5 9.16992C16.5 13.3122 13.1423 16.6699 9 16.6699C4.85775 16.6699 1.5 13.3122 1.5 9.16992C1.5 5.02767 4.85775 1.66992 9 1.66992ZM12.003 9.82842C11.7442 9.43467 11.5575 9.15117 10.8465 9.26367C9.504 9.47667 9.35475 9.71142 9.291 10.0984L9.273 10.2154L9.25425 10.3399C9.1815 10.8522 9.18375 11.0457 9.41925 11.2924C10.368 12.2884 10.9365 13.0062 11.109 13.4262C11.193 13.6309 11.409 14.2512 11.2605 14.8647C12.1707 14.5017 12.9809 13.9265 13.6238 13.1869C13.7063 12.9064 13.7662 12.5569 13.7662 12.1339V12.0552C13.7662 11.3637 13.7662 11.0479 13.2772 10.7682C13.1203 10.6787 12.9588 10.5973 12.7935 10.5244C12.5183 10.3992 12.336 10.3174 12.09 9.95742C12.06 9.91492 12.031 9.87192 12.003 9.82842ZM9 3.04467C7.26225 3.04467 5.6925 3.76917 4.578 4.93167C4.71075 5.02392 4.82625 5.15367 4.90575 5.33217C5.05875 5.67492 5.05875 6.02817 5.05875 6.34092C5.05875 6.58692 5.05875 6.82092 5.1375 6.98967C5.2455 7.22067 5.712 7.31967 6.12375 7.40517C6.2715 7.43667 6.423 7.46817 6.561 7.50642C6.9405 7.61142 7.2345 7.95267 7.46925 8.22642C7.56675 8.33967 7.7115 8.50692 7.78425 8.54892C7.82175 8.52192 7.9425 8.39067 8.00175 8.17542C8.04825 8.01042 8.03475 7.86492 7.968 7.78542C7.548 7.29042 7.57125 6.33792 7.701 5.98617C7.905 5.43192 8.5425 5.47317 9.009 5.50317C9.183 5.51442 9.3465 5.52567 9.4695 5.50992C9.936 5.45142 10.08 4.74117 10.1812 4.60242C10.4002 4.30242 11.0707 3.85017 11.4862 3.57117C10.7039 3.22235 9.8566 3.04292 9 3.04467Z" fill="#113342"/>
</svg>
