<svg width="15" height="15" viewBox="0 0 15 15" fill="none" xmlns="http://www.w3.org/2000/svg">
<path d="M10.1895 1.39648V2.56315M7.27279 1.39648V2.56315M4.35612 1.39648V2.56315M4.93945 8.97982H7.27279M4.93945 6.06315H9.60612M2.31445 6.06315C2.31445 4.13815 2.31445 3.17565 2.91237 2.57773C3.51029 1.97982 4.47279 1.97982 6.39779 1.97982H8.14779C10.0728 1.97982 11.0353 1.97982 11.6332 2.57773C12.2311 3.17565 12.2311 4.13815 12.2311 6.06315V8.97982C12.2311 10.9048 12.2311 11.8673 11.6332 12.4652C11.0353 13.0632 10.0728 13.0632 8.14779 13.0632H6.39779C4.47279 13.0632 3.51029 13.0632 2.91237 12.4652C2.31445 11.8673 2.31445 10.9048 2.31445 8.97982V6.06315Z" stroke="#113342" stroke-width="1.2" stroke-linecap="round" stroke-linejoin="round"/>
</svg>
