<svg width="32" height="32" viewBox="0 0 32 32" fill="none" xmlns="http://www.w3.org/2000/svg">
<path d="M16.9036 26.6094C17.2699 26.6946 17.3035 27.1744 16.9467 27.2933L14.84 27.9867C9.54669 29.6933 6.76003 28.2667 5.04003 22.9733L3.33336 17.7067C1.62669 12.4133 3.04003 9.61334 8.33336 7.90667L9.37069 7.56314C9.77356 7.42972 10.1612 7.8321 10.0388 8.23845C9.92679 8.61041 9.82169 9.00648 9.72003 9.42667L8.41336 15.0133C6.94669 21.2933 9.09336 24.76 15.3734 26.2533L16.9036 26.6094Z" fill="#D2D2D2"/>
<path d="M22.8933 4.28L20.6667 3.76C16.2133 2.70666 13.56 3.57333 12 6.8C11.6 7.61333 11.28 8.6 11.0133 9.73333L9.70668 15.32C8.40002 20.8933 10.12 23.64 15.68 24.96L17.92 25.4933C18.6933 25.68 19.4133 25.8 20.08 25.8533C24.24 26.2533 26.4534 24.3067 27.5733 19.4933L28.88 13.92C30.1867 8.34666 28.48 5.58667 22.8933 4.28ZM20.3867 17.7733C20.2667 18.2267 19.8667 18.52 19.4134 18.52C19.3334 18.52 19.2533 18.5067 19.16 18.4933L15.28 17.5067C14.7467 17.3733 14.4267 16.8267 14.56 16.2933C14.6933 15.76 15.24 15.44 15.7733 15.5733L19.6533 16.56C20.2 16.6933 20.52 17.24 20.3867 17.7733ZM24.2933 13.2667C24.1733 13.72 23.7733 14.0133 23.32 14.0133C23.24 14.0133 23.16 14 23.0667 13.9867L16.6 12.3467C16.0667 12.2133 15.7467 11.6667 15.88 11.1333C16.0133 10.6 16.56 10.28 17.0933 10.4133L23.56 12.0533C24.1067 12.1733 24.4267 12.72 24.2933 13.2667Z" fill="#D2D2D2"/>
</svg>
