<svg width="19" height="19" viewBox="0 0 19 19" fill="none" xmlns="http://www.w3.org/2000/svg">
<path d="M6.10198 1.99903L6.90973 1.74103C7.66573 1.49953 8.47423 1.89028 8.79823 2.65378L9.44323 4.17478C9.72448 4.83703 9.56848 5.61628 9.05773 6.10078L7.63798 7.44928C7.72548 8.25628 7.99648 9.05053 8.45098 9.83203C8.88318 10.5879 9.46231 11.2497 10.1542 11.7783L11.8612 11.2083C12.5077 10.993 13.212 11.2413 13.6087 11.824L14.5327 13.1815C14.9947 13.8595 14.9115 14.794 14.3392 15.3685L13.7257 15.9843C13.1152 16.597 12.2437 16.8198 11.4367 16.5678C9.53273 15.9738 7.78198 14.2105 6.18448 11.278C4.58498 8.34053 4.02048 5.84853 4.49098 3.80203C4.68898 2.94103 5.30248 2.25478 6.10348 1.99903" fill="#113342"/>
</svg>
