<svg width="19" height="17" viewBox="0 0 19 17" fill="none" xmlns="http://www.w3.org/2000/svg">
<path d="M2.77778 2.19775C1.65933 2.19775 0.75 3.10709 0.75 4.22553V12.3366C0.75 13.4551 1.65933 14.3644 2.77778 14.3644H16.9722C18.0907 14.3644 19 13.4551 19 12.3366V4.22553C19 3.10709 18.0907 2.19775 16.9722 2.19775H2.77778ZM4.80556 12.3366H2.77778V10.3089C3.89622 10.3089 4.80556 11.2182 4.80556 12.3366ZM2.77778 6.25331V4.22553H4.80556C4.80556 5.34398 3.89622 6.25331 2.77778 6.25331ZM14.9444 12.3366C14.9444 11.2182 15.8538 10.3089 16.9722 10.3089V12.3366H14.9444ZM16.9722 6.25331C15.8538 6.25331 14.9444 5.34398 14.9444 4.22553H16.9722V6.25331ZM6.32639 8.28109C6.32639 7.81508 6.41818 7.35363 6.59651 6.92309C6.77485 6.49255 7.03623 6.10136 7.36575 5.77184C7.69527 5.44232 8.08647 5.18093 8.517 5.0026C8.94754 4.82426 9.40899 4.73248 9.875 4.73248C10.341 4.73248 10.8025 4.82426 11.233 5.0026C11.6635 5.18093 12.0547 5.44232 12.3842 5.77184C12.7138 6.10136 12.9752 6.49255 13.1535 6.92309C13.3318 7.35363 13.4236 7.81508 13.4236 8.28109C13.4236 8.7471 13.3318 9.20854 13.1535 9.63908C12.9752 10.0696 12.7138 10.4608 12.3842 10.7903C12.0547 11.1199 11.6635 11.3812 11.233 11.5596C10.8025 11.7379 10.341 11.8297 9.875 11.8297C9.40899 11.8297 8.94754 11.7379 8.517 11.5596C8.08647 11.3812 7.69527 11.1199 7.36575 10.7903C7.03623 10.4608 6.77485 10.0696 6.59651 9.63908C6.41818 9.20854 6.32639 8.7471 6.32639 8.28109ZM8.73437 6.76025C8.73437 7.06759 8.95299 7.32106 9.24132 7.38126V8.91477H9.11458C8.76606 8.91477 8.4809 9.19992 8.4809 9.54845C8.4809 9.89697 8.76606 10.1821 9.11458 10.1821H10.6354C10.9839 10.1821 11.2691 9.89697 11.2691 9.54845C11.2691 9.19992 10.9839 8.91477 10.6354 8.91477H10.5087V6.76025C10.5087 6.41173 10.2235 6.12657 9.875 6.12657H9.36806C9.01953 6.12657 8.73437 6.41173 8.73437 6.76025Z" fill="#113342"/>
</svg>
