<svg width="24" height="25" viewBox="0 0 24 25" fill="none" xmlns="http://www.w3.org/2000/svg">
<path d="M17 22.2C16.1667 22.2 15.4583 21.9083 14.875 21.325C14.2917 20.7417 14 20.0333 14 19.2C14 19.1 14.025 18.8667 14.075 18.5L7.05 14.4C6.78333 14.65 6.475 14.846 6.125 14.988C5.775 15.13 5.4 15.2007 5 15.2C4.16667 15.2 3.45833 14.9083 2.875 14.325C2.29167 13.7417 2 13.0333 2 12.2C2 11.3667 2.29167 10.6583 2.875 10.075C3.45833 9.49168 4.16667 9.20001 5 9.20001C5.4 9.20001 5.775 9.27101 6.125 9.41301C6.475 9.55501 6.78333 9.75068 7.05 10L14.075 5.90001C14.0417 5.78335 14.021 5.67101 14.013 5.56301C14.005 5.45501 14.0007 5.33401 14 5.20001C14 4.36668 14.2917 3.65835 14.875 3.07501C15.4583 2.49168 16.1667 2.20001 17 2.20001C17.8333 2.20001 18.5417 2.49168 19.125 3.07501C19.7083 3.65835 20 4.36668 20 5.20001C20 6.03335 19.7083 6.74168 19.125 7.32501C18.5417 7.90835 17.8333 8.20001 17 8.20001C16.6 8.20001 16.225 8.12901 15.875 7.98701C15.525 7.84501 15.2167 7.64935 14.95 7.40001L7.925 11.5C7.95833 11.6167 7.97933 11.7293 7.988 11.838C7.99667 11.9467 8.00067 12.0673 8 12.2C7.99933 12.3327 7.99533 12.4537 7.988 12.563C7.98067 12.6723 7.95967 12.7847 7.925 12.9L14.95 17C15.2167 16.75 15.525 16.5543 15.875 16.413C16.225 16.2717 16.6 16.2007 17 16.2C17.8333 16.2 18.5417 16.4917 19.125 17.075C19.7083 17.6583 20 18.3667 20 19.2C20 20.0333 19.7083 20.7417 19.125 21.325C18.5417 21.9083 17.8333 22.2 17 22.2Z" fill="#113342"/>
</svg>
