<svg width="28" height="20" viewBox="0 0 28 20" fill="none" xmlns="http://www.w3.org/2000/svg">
<rect y="0.0078125" width="28" height="20" rx="10" fill="#1FC16B"/>
<path d="M18.8316 7.97345C18.5687 7.34594 18.1862 6.77558 17.7055 6.29415C17.2261 5.81189 16.6568 5.42846 16.0297 5.16564C15.3873 4.89508 14.697 4.7564 14 4.75782H13.9765C13.2676 4.76134 12.582 4.90196 11.9363 5.17853C11.3146 5.44405 10.7506 5.82816 10.2758 6.30939C9.79967 6.78973 9.42155 7.3581 9.16248 7.98282C8.89356 8.63247 8.75729 9.32934 8.7617 10.0324C8.76522 10.8457 8.95975 11.6531 9.32303 12.375V14.1563C9.32303 14.4539 9.56443 14.6953 9.86092 14.6953H11.6398C12.3651 15.0613 13.1654 15.2538 13.9777 15.2578H14.0023C14.7031 15.2578 15.3816 15.1219 16.0215 14.8559C16.6454 14.5962 17.2126 14.2172 17.6914 13.7402C18.1742 13.2609 18.5539 12.7008 18.8199 12.0762C19.0953 11.4293 19.2359 10.7414 19.2394 10.0313C19.2418 9.31759 19.1035 8.62501 18.8316 7.97345ZM11.6609 10.5703C11.3515 10.5703 11.0996 10.3184 11.0996 10.0078C11.0996 9.69728 11.3515 9.44532 11.6609 9.44532C11.9703 9.44532 12.2222 9.69728 12.2222 10.0078C12.2222 10.3184 11.9715 10.5703 11.6609 10.5703ZM14 10.5703C13.6906 10.5703 13.4387 10.3184 13.4387 10.0078C13.4387 9.69728 13.6906 9.44532 14 9.44532C14.3094 9.44532 14.5613 9.69728 14.5613 10.0078C14.5613 10.3184 14.3094 10.5703 14 10.5703ZM16.339 10.5703C16.0297 10.5703 15.7777 10.3184 15.7777 10.0078C15.7777 9.69728 16.0297 9.44532 16.339 9.44532C16.6484 9.44532 16.9004 9.69728 16.9004 10.0078C16.9004 10.3184 16.6484 10.5703 16.339 10.5703Z" fill="white"/>
</svg>
