<svg width="16" height="16" viewBox="0 0 16 16" fill="none" xmlns="http://www.w3.org/2000/svg">
<path d="M7.28048 1.91962C7.35384 1.79372 7.45893 1.68927 7.58527 1.61667C7.7116 1.54407 7.85477 1.50586 8.00048 1.50586C8.14619 1.50586 8.28935 1.54407 8.41569 1.61667C8.54202 1.68927 8.64711 1.79372 8.72048 1.91962L10.5838 5.11828L14.2025 5.90228C14.3448 5.93321 14.4766 6.00092 14.5846 6.09864C14.6926 6.19636 14.7731 6.32069 14.8181 6.45923C14.8631 6.59777 14.871 6.74569 14.841 6.88823C14.811 7.03077 14.7442 7.16296 14.6471 7.27162L12.1805 10.0323L12.5538 13.7156C12.5685 13.8607 12.545 14.007 12.4854 14.1401C12.4259 14.2732 12.3325 14.3883 12.2146 14.474C12.0966 14.5597 11.9583 14.6129 11.8133 14.6284C11.6684 14.6439 11.5219 14.6211 11.3885 14.5623L8.00048 13.0689L4.61248 14.5623C4.47909 14.6211 4.33261 14.6439 4.18765 14.6284C4.04269 14.6129 3.90433 14.5597 3.78639 14.474C3.66845 14.3883 3.57505 14.2732 3.51552 14.1401C3.45599 14.007 3.43242 13.8607 3.44715 13.7156L3.82048 10.0323L1.35381 7.27228C1.25663 7.16363 1.18965 7.03139 1.15955 6.88876C1.12946 6.74613 1.13731 6.5981 1.18231 6.45945C1.22731 6.3208 1.30789 6.19638 1.41602 6.09862C1.52414 6.00085 1.65601 5.93315 1.79848 5.90228L5.41715 5.11828L7.28048 1.91962Z" fill="#FFBC0F"/>
</svg>
