<svg width="15" height="15" viewBox="0 0 15 15" fill="none" xmlns="http://www.w3.org/2000/svg">
<path fill-rule="evenodd" clip-rule="evenodd" d="M14.2213 6.38386C14.4149 7.97317 14.0579 9.58083 13.2097 10.9388C12.3615 12.2967 11.0734 13.3228 9.56026 13.846C8.0471 14.3693 6.4003 14.358 4.89447 13.814C3.38864 13.27 2.11479 12.2263 1.28532 10.8569C1.19505 10.708 1.16761 10.5294 1.20905 10.3603C1.25048 10.1912 1.35739 10.0454 1.50626 9.95517C1.65513 9.86489 1.83376 9.83746 2.00286 9.87889C2.17196 9.92033 2.31768 10.0272 2.40795 10.1761C2.85476 10.9139 3.46354 11.5404 4.18822 12.0083C4.91289 12.4761 5.73449 12.773 6.59082 12.8764C7.44716 12.9799 8.31581 12.8872 9.13104 12.6054C9.94628 12.3236 10.6867 11.86 11.2964 11.2498C11.906 10.6396 12.3689 9.89876 12.65 9.08327C12.9311 8.26779 13.023 7.39905 12.9187 6.54281C12.8145 5.68656 12.5169 4.86524 12.0485 4.14098C11.58 3.41672 10.9529 2.80851 10.2147 2.36236C10.0657 2.27231 9.9586 2.12678 9.91692 1.95776C9.87524 1.78874 9.90241 1.61009 9.99245 1.46111C10.0825 1.31212 10.228 1.20501 10.397 1.16333C10.5661 1.12165 10.7447 1.14881 10.8937 1.23886C11.8022 1.78799 12.5739 2.53656 13.1504 3.42792C13.7269 4.31928 14.0931 5.33008 14.2213 6.38386ZM8.14795 1.10498C8.14795 1.33704 8.05576 1.5596 7.89167 1.7237C7.72757 1.88779 7.50501 1.97998 7.27295 1.97998C7.04088 1.97998 6.81833 1.88779 6.65423 1.7237C6.49014 1.5596 6.39795 1.33704 6.39795 1.10498C6.39795 0.872916 6.49014 0.650356 6.65423 0.486262C6.81833 0.322168 7.04088 0.22998 7.27295 0.22998C7.50501 0.22998 7.72757 0.322168 7.89167 0.486262C8.05576 0.650356 8.14795 0.872916 8.14795 1.10498ZM2.72645 4.60498C2.78481 4.50543 2.8229 4.39532 2.83854 4.28099C2.85417 4.16666 2.84703 4.05036 2.81754 3.9388C2.78804 3.82724 2.73677 3.72261 2.66667 3.63095C2.59658 3.53928 2.50905 3.46239 2.40911 3.40469C2.30918 3.34699 2.19882 3.30963 2.08438 3.29475C1.96995 3.27988 1.85371 3.28779 1.74234 3.31802C1.63098 3.34826 1.5267 3.40022 1.4355 3.47092C1.3443 3.54162 1.26798 3.62967 1.21095 3.72998C1.09675 3.93084 1.06663 4.16873 1.12717 4.39171C1.18771 4.6147 1.33399 4.80469 1.53409 4.92022C1.73419 5.03575 1.97187 5.06745 2.19525 5.00839C2.41864 4.94933 2.60959 4.80431 2.72645 4.60498ZM1.14795 6.35498C1.38001 6.35498 1.60257 6.44717 1.76667 6.61126C1.93076 6.77536 2.02295 6.99792 2.02295 7.22998C2.02295 7.46204 1.93076 7.6846 1.76667 7.8487C1.60257 8.01279 1.38001 8.10498 1.14795 8.10498C0.915885 8.10498 0.693325 8.01279 0.529231 7.8487C0.365136 7.6846 0.272949 7.46204 0.272949 7.22998C0.272949 6.99792 0.365136 6.77536 0.529231 6.61126C0.693325 6.44717 0.915885 6.35498 1.14795 6.35498ZM4.64795 2.68348C4.74826 2.62645 4.83631 2.55013 4.90701 2.45893C4.97771 2.36773 5.02967 2.26345 5.05991 2.15209C5.09014 2.04072 5.09805 1.92448 5.08318 1.81005C5.0683 1.69561 5.03094 1.58525 4.97324 1.48532C4.91554 1.38538 4.83865 1.29785 4.74698 1.22776C4.65531 1.15766 4.55069 1.10639 4.43913 1.07689C4.32757 1.0474 4.21127 1.04026 4.09694 1.05589C3.98261 1.07153 3.8725 1.10962 3.77295 1.16798C3.57362 1.28484 3.4286 1.47579 3.36954 1.69918C3.31048 1.92256 3.34218 2.16024 3.45771 2.36034C3.57324 2.56044 3.76323 2.70672 3.98622 2.76726C4.2092 2.8278 4.44709 2.79768 4.64795 2.68348Z" fill="#113342"/>
</svg>
