<svg width="24" height="25" viewBox="0 0 24 25" fill="none" xmlns="http://www.w3.org/2000/svg">
<path d="M22 17.202C21.9999 18.5697 21.5326 19.8962 20.6755 20.962C19.8183 22.0277 18.6228 22.7686 17.287 23.062L16.649 21.148C17.2333 21.052 17.789 20.8274 18.276 20.4905C18.763 20.1537 19.1691 19.7129 19.465 19.2H17C16.4696 19.2 15.9609 18.9893 15.5858 18.6142C15.2107 18.2391 15 17.7304 15 17.2V13.2C15 12.6696 15.2107 12.1609 15.5858 11.7858C15.9609 11.4107 16.4696 11.2 17 11.2H19.938C19.694 9.26689 18.7529 7.48927 17.2914 6.20067C15.8299 4.91208 13.9484 4.20107 12 4.20107C10.0516 4.20107 8.17007 4.91208 6.70857 6.20067C5.24708 7.48927 4.30603 9.26689 4.062 11.2H7C7.53043 11.2 8.03914 11.4107 8.41421 11.7858C8.78929 12.1609 9 12.6696 9 13.2V17.2C9 17.7304 8.78929 18.2391 8.41421 18.6142C8.03914 18.9893 7.53043 19.2 7 19.2H4C3.46957 19.2 2.96086 18.9893 2.58579 18.6142C2.21071 18.2391 2 17.7304 2 17.2V12.2C2 6.677 6.477 2.2 12 2.2C17.523 2.2 22 6.677 22 12.2V17.202Z" fill="#113342"/>
</svg>
