<svg width="18" height="19" viewBox="0 0 18 19" fill="none" xmlns="http://www.w3.org/2000/svg">
<path d="M9 1.66992C4.85775 1.66992 1.5 5.02767 1.5 9.16992C1.5 13.3122 4.85775 16.6699 9 16.6699C13.1422 16.6699 16.5 13.3122 16.5 9.16992C16.5 5.02767 13.1422 1.66992 9 1.66992ZM9 4.66992C9.19891 4.66992 9.38968 4.74894 9.53033 4.88959C9.67098 5.03024 9.75 5.22101 9.75 5.41992V9.16992C9.74996 9.36882 9.67091 9.55955 9.53025 9.70017L7.28025 11.9502C7.1388 12.0868 6.94935 12.1624 6.7527 12.1607C6.55605 12.159 6.36794 12.0801 6.22889 11.941C6.08983 11.802 6.01095 11.6139 6.00924 11.4172C6.00754 11.2206 6.08313 11.0311 6.21975 10.8897L8.25 8.85942V5.41992C8.25 5.22101 8.32902 5.03024 8.46967 4.88959C8.61032 4.74894 8.80109 4.66992 9 4.66992Z" fill="#113342"/>
</svg>
