<svg width="18" height="18" viewBox="0 0 18 18" fill="none" xmlns="http://www.w3.org/2000/svg">
<path d="M16.5 9.00781C16.5 4.87531 13.1325 1.50781 9 1.50781C4.8675 1.50781 1.5 4.87531 1.5 9.00781C1.5 11.1828 2.4375 13.1403 3.9225 14.5128C3.9225 14.5203 3.9225 14.5203 3.915 14.5278C3.99 14.6028 4.08 14.6628 4.155 14.7303C4.2 14.7678 4.2375 14.8053 4.2825 14.8353C4.4175 14.9478 4.5675 15.0528 4.71 15.1578C4.7625 15.1953 4.8075 15.2253 4.86 15.2628C5.0025 15.3603 5.1525 15.4503 5.31 15.5328C5.3625 15.5628 5.4225 15.6003 5.475 15.6303C5.625 15.7128 5.7825 15.7878 5.9475 15.8553C6.0075 15.8853 6.0675 15.9153 6.1275 15.9378C6.2925 16.0053 6.4575 16.0653 6.6225 16.1178C6.6825 16.1403 6.7425 16.1628 6.8025 16.1778C6.9825 16.2303 7.1625 16.2753 7.3425 16.3203C7.395 16.3353 7.4475 16.3503 7.5075 16.3578C7.7175 16.4028 7.9275 16.4328 8.145 16.4553C8.175 16.4553 8.205 16.4628 8.235 16.4703C8.49 16.4928 8.745 16.5078 9 16.5078C9.255 16.5078 9.51 16.4928 9.7575 16.4703C9.7875 16.4703 9.8175 16.4628 9.8475 16.4553C10.065 16.4328 10.275 16.4028 10.485 16.3578C10.5375 16.3503 10.59 16.3278 10.65 16.3203C10.83 16.2753 11.0175 16.2378 11.19 16.1778C11.25 16.1553 11.31 16.1328 11.37 16.1178C11.535 16.0578 11.7075 16.0053 11.865 15.9378C11.925 15.9153 11.985 15.8853 12.045 15.8553C12.2025 15.7878 12.36 15.7128 12.5175 15.6303C12.5775 15.6003 12.63 15.5628 12.6825 15.5328C12.8325 15.4428 12.9825 15.3603 13.1325 15.2628C13.185 15.2328 13.23 15.1953 13.2825 15.1578C13.4325 15.0528 13.575 14.9478 13.71 14.8353C13.755 14.7978 13.7925 14.7603 13.8375 14.7303C13.92 14.6628 14.0025 14.5953 14.0775 14.5278C14.0775 14.5203 14.0775 14.5203 14.07 14.5128C15.5625 13.1403 16.5 11.1828 16.5 9.00781ZM12.705 12.7353C10.6725 11.3703 7.3425 11.3703 5.295 12.7353C4.965 12.9528 4.695 13.2078 4.47 13.4853C3.33 12.3303 2.625 10.7478 2.625 9.00781C2.625 5.49031 5.4825 2.63281 9 2.63281C12.5175 2.63281 15.375 5.49031 15.375 9.00781C15.375 10.7478 14.67 12.3303 13.53 13.4853C13.3125 13.2078 13.035 12.9528 12.705 12.7353Z" fill="#113342"/>
<path d="M9 5.20508C7.4475 5.20508 6.1875 6.46508 6.1875 8.01758C6.1875 9.54008 7.38 10.7776 8.9625 10.8226C8.985 10.8226 9.015 10.8226 9.03 10.8226C9.045 10.8226 9.0675 10.8226 9.0825 10.8226C9.09 10.8226 9.0975 10.8226 9.0975 10.8226C10.6125 10.7701 11.805 9.54008 11.8125 8.01758C11.8125 6.46508 10.5525 5.20508 9 5.20508Z" fill="#113342"/>
</svg>
