<svg width="19" height="18" viewBox="0 0 19 18" fill="none" xmlns="http://www.w3.org/2000/svg">
<path d="M3.625 15.7578C3.2125 15.7578 2.8595 15.6111 2.566 15.3176C2.2725 15.0241 2.1255 14.6708 2.125 14.2578V6.00781C2.125 5.59531 2.272 5.24231 2.566 4.94881C2.86 4.65531 3.213 4.50831 3.625 4.50781H6.625V3.00781C6.625 2.59531 6.772 2.24231 7.066 1.94881C7.36 1.65531 7.713 1.50831 8.125 1.50781H11.125C11.5375 1.50781 11.8907 1.65481 12.1847 1.94881C12.4788 2.24281 12.6255 2.59581 12.625 3.00781V4.50781H15.625C16.0375 4.50781 16.3907 4.65481 16.6847 4.94881C16.9788 5.24281 17.1255 5.59581 17.125 6.00781V14.2578C17.125 14.6703 16.9783 15.0236 16.6847 15.3176C16.3912 15.6116 16.038 15.7583 15.625 15.7578H3.625ZM8.125 4.50781H11.125V3.00781H8.125V4.50781Z" fill="#113342"/>
</svg>
